<svg width="188" height="24" viewBox="0 0 188 24" fill="none" xmlns="http://www.w3.org/2000/svg">
<path d="M2.576 16.608H6.728C7.624 16.608 8.4 16.568 9.056 16.488C9.728 16.408 10.28 16.248 10.712 16.008C11.144 15.752 11.464 15.4 11.672 14.952C11.896 14.488 12.008 13.88 12.008 13.128C12.008 12.408 11.888 11.832 11.648 11.4C11.408 10.952 11.064 10.608 10.616 10.368C10.168 10.128 9.632 9.968 9.008 9.888C8.384 9.792 7.688 9.744 6.92 9.744H2.576V16.608ZM2.576 8.352H6.704C7.552 8.352 8.264 8.28 8.84 8.136C9.416 7.992 9.88 7.784 10.232 7.512C10.584 7.224 10.832 6.88 10.976 6.48C11.136 6.064 11.216 5.592 11.216 5.064C11.216 4.52 11.128 4.064 10.952 3.696C10.776 3.312 10.496 3.008 10.112 2.784C9.728 2.544 9.224 2.376 8.6 2.28C7.992 2.168 7.24 2.112 6.344 2.112H2.576V8.352ZM0.944 18V0.719999H7.184C8.192 0.719999 9.056 0.823999 9.776 1.032C10.496 1.24 11.08 1.536 11.528 1.92C11.992 2.304 12.328 2.768 12.536 3.312C12.744 3.84 12.848 4.424 12.848 5.064C12.848 5.672 12.768 6.2 12.608 6.648C12.448 7.08 12.24 7.448 11.984 7.752C11.728 8.04 11.432 8.272 11.096 8.448C10.776 8.608 10.44 8.72 10.088 8.784V8.832C11.288 9.008 12.176 9.48 12.752 10.248C13.344 11.016 13.64 11.976 13.64 13.128C13.64 14.024 13.496 14.784 13.208 15.408C12.936 16.032 12.552 16.536 12.056 16.92C11.56 17.304 10.96 17.584 10.256 17.76C9.568 17.92 8.816 18 8 18H0.944ZM25.1598 5.568H26.5998V18H25.1598V16.272C24.9678 16.496 24.7518 16.728 24.5118 16.968C24.2718 17.208 23.9918 17.432 23.6718 17.64C23.3678 17.832 23.0078 17.992 22.5918 18.12C22.1758 18.264 21.6958 18.336 21.1518 18.336C20.3198 18.336 19.6238 18.224 19.0638 18C18.5038 17.76 18.0478 17.432 17.6958 17.016C17.3598 16.6 17.1118 16.12 16.9518 15.576C16.8078 15.016 16.7358 14.408 16.7358 13.752V5.568H18.1758V13.728C18.1758 14.8 18.4238 15.624 18.9198 16.2C19.4158 16.76 20.2318 17.04 21.3678 17.04C21.9598 17.04 22.4878 16.928 22.9518 16.704C23.4318 16.464 23.8318 16.136 24.1518 15.72C24.4718 15.304 24.7198 14.808 24.8958 14.232C25.0718 13.656 25.1598 13.024 25.1598 12.336V5.568ZM30.9118 14.112C31.1358 15.184 31.5358 15.944 32.1118 16.392C32.7038 16.824 33.5438 17.04 34.6318 17.04C35.1598 17.04 35.6158 16.976 35.9998 16.848C36.3838 16.72 36.6958 16.552 36.9358 16.344C37.1918 16.12 37.3838 15.872 37.5118 15.6C37.6398 15.328 37.7038 15.04 37.7038 14.736C37.7038 14.128 37.5038 13.68 37.1038 13.392C36.7198 13.088 36.2318 12.856 35.6398 12.696C35.0478 12.52 34.4078 12.376 33.7198 12.264C33.0318 12.136 32.3918 11.952 31.7998 11.712C31.2078 11.472 30.7118 11.128 30.3118 10.68C29.9278 10.232 29.7358 9.6 29.7358 8.784C29.7358 7.744 30.1118 6.896 30.8638 6.24C31.6318 5.568 32.7118 5.232 34.1038 5.232C35.4478 5.232 36.5358 5.536 37.3678 6.144C38.2158 6.736 38.7278 7.736 38.9038 9.144H37.4398C37.3118 8.184 36.9438 7.512 36.3358 7.128C35.7438 6.728 34.9918 6.528 34.0798 6.528C33.1678 6.528 32.4718 6.728 31.9918 7.128C31.5118 7.512 31.2718 8.024 31.2718 8.664C31.2718 9.224 31.4638 9.656 31.8478 9.96C32.2478 10.248 32.7438 10.488 33.3358 10.68C33.9278 10.856 34.5678 11.016 35.2558 11.16C35.9438 11.304 36.5838 11.512 37.1758 11.784C37.7678 12.04 38.2558 12.392 38.6398 12.84C39.0398 13.288 39.2398 13.912 39.2398 14.712C39.2398 15.304 39.1118 15.832 38.8558 16.296C38.5998 16.744 38.2478 17.12 37.7998 17.424C37.3518 17.728 36.8158 17.952 36.1918 18.096C35.5838 18.256 34.9118 18.336 34.1758 18.336C33.4398 18.336 32.7838 18.224 32.2078 18C31.6478 17.792 31.1678 17.496 30.7678 17.112C30.3678 16.728 30.0558 16.28 29.8318 15.768C29.6078 15.256 29.4798 14.704 29.4478 14.112H30.9118ZM41.8659 18V5.568H43.3059V18H41.8659ZM41.7939 2.856V0.719999H43.3779V2.856H41.7939ZM48.4102 18H46.9702V5.568H48.4102V7.296C48.9862 6.688 49.5782 6.192 50.1862 5.808C50.8102 5.424 51.5542 5.232 52.4182 5.232C53.1862 5.232 53.8982 5.368 54.5542 5.64C55.2102 5.896 55.7622 6.352 56.2102 7.008C56.5142 7.456 56.6902 7.92 56.7382 8.4C56.8022 8.864 56.8342 9.352 56.8342 9.864V18H55.3942V9.888C55.3942 8.768 55.1462 7.928 54.6502 7.368C54.1542 6.808 53.3302 6.528 52.1782 6.528C51.7302 6.528 51.3222 6.6 50.9542 6.744C50.5862 6.872 50.2502 7.048 49.9462 7.272C49.6582 7.496 49.4102 7.752 49.2022 8.04C48.9942 8.328 48.8342 8.632 48.7222 8.952C48.5782 9.352 48.4902 9.736 48.4582 10.104C48.4262 10.472 48.4102 10.872 48.4102 11.304V18ZM69.3061 10.92C69.3061 10.312 69.2181 9.744 69.0421 9.216C68.8821 8.672 68.6341 8.208 68.2981 7.824C67.9781 7.424 67.5701 7.112 67.0741 6.888C66.5781 6.648 66.0101 6.528 65.3701 6.528C64.7301 6.528 64.1621 6.648 63.6661 6.888C63.1861 7.128 62.7701 7.448 62.4181 7.848C62.0821 8.248 61.8101 8.712 61.6021 9.24C61.3941 9.768 61.2581 10.328 61.1941 10.92H69.3061ZM61.1941 12.12C61.1941 12.792 61.2821 13.432 61.4581 14.04C61.6341 14.632 61.8901 15.152 62.2261 15.6C62.5781 16.032 63.0181 16.384 63.5461 16.656C64.0741 16.912 64.6821 17.04 65.3701 17.04C66.3141 17.04 67.1221 16.792 67.7941 16.296C68.4661 15.8 68.9141 15.096 69.1381 14.184H70.7461C70.5701 14.776 70.3381 15.328 70.0501 15.84C69.7621 16.336 69.4021 16.776 68.9701 17.16C68.5381 17.528 68.0261 17.816 67.4341 18.024C66.8421 18.232 66.1541 18.336 65.3701 18.336C64.3781 18.336 63.5221 18.168 62.8021 17.832C62.0821 17.496 61.4901 17.04 61.0261 16.464C60.5621 15.872 60.2181 15.184 59.9941 14.4C59.7701 13.6 59.6581 12.744 59.6581 11.832C59.6581 10.92 59.7861 10.064 60.0421 9.264C60.3141 8.464 60.6901 7.768 61.1701 7.176C61.6661 6.568 62.2661 6.096 62.9701 5.76C63.6741 5.408 64.4741 5.232 65.3701 5.232C67.0821 5.232 68.4261 5.824 69.4021 7.008C70.3781 8.176 70.8581 9.88 70.8421 12.12H61.1941ZM74.4821 14.112C74.7061 15.184 75.1061 15.944 75.6821 16.392C76.2741 16.824 77.1141 17.04 78.2021 17.04C78.7301 17.04 79.1861 16.976 79.5701 16.848C79.9541 16.72 80.2661 16.552 80.5061 16.344C80.7621 16.12 80.9541 15.872 81.0821 15.6C81.2101 15.328 81.2741 15.04 81.2741 14.736C81.2741 14.128 81.0741 13.68 80.6741 13.392C80.2901 13.088 79.8021 12.856 79.2101 12.696C78.6181 12.52 77.9781 12.376 77.2901 12.264C76.6021 12.136 75.9621 11.952 75.3701 11.712C74.7781 11.472 74.2821 11.128 73.8821 10.68C73.4981 10.232 73.3061 9.6 73.3061 8.784C73.3061 7.744 73.6821 6.896 74.4341 6.24C75.2021 5.568 76.2821 5.232 77.6741 5.232C79.0181 5.232 80.1061 5.536 80.9381 6.144C81.7861 6.736 82.2981 7.736 82.4741 9.144H81.0101C80.8821 8.184 80.5141 7.512 79.9061 7.128C79.3141 6.728 78.5621 6.528 77.6501 6.528C76.7381 6.528 76.0421 6.728 75.5621 7.128C75.0821 7.512 74.8421 8.024 74.8421 8.664C74.8421 9.224 75.0341 9.656 75.4181 9.96C75.8181 10.248 76.3141 10.488 76.9061 10.68C77.4981 10.856 78.1381 11.016 78.8261 11.16C79.5141 11.304 80.1541 11.512 80.7461 11.784C81.3381 12.04 81.8261 12.392 82.2101 12.84C82.6101 13.288 82.8101 13.912 82.8101 14.712C82.8101 15.304 82.6821 15.832 82.4261 16.296C82.1701 16.744 81.8181 17.12 81.3701 17.424C80.9221 17.728 80.3861 17.952 79.7621 18.096C79.1541 18.256 78.4821 18.336 77.7461 18.336C77.0101 18.336 76.3541 18.224 75.7781 18C75.2181 17.792 74.7381 17.496 74.3381 17.112C73.9381 16.728 73.6261 16.28 73.4021 15.768C73.1781 15.256 73.0501 14.704 73.0181 14.112H74.4821ZM86.4821 14.112C86.7061 15.184 87.1061 15.944 87.6821 16.392C88.2741 16.824 89.1141 17.04 90.2021 17.04C90.7301 17.04 91.1861 16.976 91.5701 16.848C91.9541 16.72 92.2661 16.552 92.5061 16.344C92.7621 16.12 92.9541 15.872 93.0821 15.6C93.2101 15.328 93.2741 15.04 93.2741 14.736C93.2741 14.128 93.0741 13.68 92.6741 13.392C92.2901 13.088 91.8021 12.856 91.2101 12.696C90.6181 12.52 89.9781 12.376 89.2901 12.264C88.6021 12.136 87.9621 11.952 87.3701 11.712C86.7781 11.472 86.2821 11.128 85.8821 10.68C85.4981 10.232 85.3061 9.6 85.3061 8.784C85.3061 7.744 85.6821 6.896 86.4341 6.24C87.2021 5.568 88.2821 5.232 89.6741 5.232C91.0181 5.232 92.1061 5.536 92.9381 6.144C93.7861 6.736 94.2981 7.736 94.4741 9.144H93.0101C92.8821 8.184 92.5141 7.512 91.9061 7.128C91.3141 6.728 90.5621 6.528 89.6501 6.528C88.7381 6.528 88.0421 6.728 87.5621 7.128C87.0821 7.512 86.8421 8.024 86.8421 8.664C86.8421 9.224 87.0341 9.656 87.4181 9.96C87.8181 10.248 88.3141 10.488 88.9061 10.68C89.4981 10.856 90.1381 11.016 90.8261 11.16C91.5141 11.304 92.1541 11.512 92.7461 11.784C93.3381 12.04 93.8261 12.392 94.2101 12.84C94.6101 13.288 94.8101 13.912 94.8101 14.712C94.8101 15.304 94.6821 15.832 94.4261 16.296C94.1701 16.744 93.8181 17.12 93.3701 17.424C92.9221 17.728 92.3861 17.952 91.7621 18.096C91.1541 18.256 90.4821 18.336 89.7461 18.336C89.0101 18.336 88.3541 18.224 87.7781 18C87.2181 17.792 86.7381 17.496 86.3381 17.112C85.9381 16.728 85.6261 16.28 85.4021 15.768C85.1781 15.256 85.0501 14.704 85.0181 14.112H86.4821Z" fill="white"/>
<path d="M97.7422 0.726562H101.352V14.8945H109.906V18H97.7422V0.726562ZM122.797 6.84375C123.875 8.19531 124.414 9.79297 124.414 11.6367C124.414 13.5117 123.875 15.1172 122.797 16.4531C121.719 17.7812 120.082 18.4453 117.887 18.4453C115.691 18.4453 114.055 17.7812 112.977 16.4531C111.898 15.1172 111.359 13.5117 111.359 11.6367C111.359 9.79297 111.898 8.19531 112.977 6.84375C114.055 5.49219 115.691 4.81641 117.887 4.81641C120.082 4.81641 121.719 5.49219 122.797 6.84375ZM117.875 7.64062C116.898 7.64062 116.145 7.98828 115.613 8.68359C115.09 9.37109 114.828 10.3555 114.828 11.6367C114.828 12.918 115.09 13.9062 115.613 14.6016C116.145 15.2969 116.898 15.6445 117.875 15.6445C118.852 15.6445 119.602 15.2969 120.125 14.6016C120.648 13.9062 120.91 12.918 120.91 11.6367C120.91 10.3555 120.648 9.37109 120.125 8.68359C119.602 7.98828 118.852 7.64062 117.875 7.64062ZM130.426 20.2383C130.785 20.543 131.391 20.6953 132.242 20.6953C133.445 20.6953 134.25 20.293 134.656 19.4883C134.922 18.9727 135.055 18.1055 135.055 16.8867V16.0664C134.734 16.6133 134.391 17.0234 134.023 17.2969C133.359 17.8047 132.496 18.0586 131.434 18.0586C129.793 18.0586 128.48 17.4844 127.496 16.3359C126.52 15.1797 126.031 13.6172 126.031 11.6484C126.031 9.75 126.504 8.15625 127.449 6.86719C128.395 5.57031 129.734 4.92188 131.469 4.92188C132.109 4.92188 132.668 5.01953 133.145 5.21484C133.957 5.55078 134.613 6.16797 135.113 7.06641V5.22656H138.359V17.3438C138.359 18.9922 138.082 20.2344 137.527 21.0703C136.574 22.5078 134.746 23.2266 132.043 23.2266C130.41 23.2266 129.078 22.9062 128.047 22.2656C127.016 21.625 126.445 20.668 126.336 19.3945H129.969C130.062 19.7852 130.215 20.0664 130.426 20.2383ZM129.863 13.6406C130.316 14.7188 131.129 15.2578 132.301 15.2578C133.082 15.2578 133.742 14.9648 134.281 14.3789C134.82 13.7852 135.09 12.8438 135.09 11.5547C135.09 10.3438 134.832 9.42188 134.316 8.78906C133.809 8.15625 133.125 7.83984 132.266 7.83984C131.094 7.83984 130.285 8.39062 129.84 9.49219C129.605 10.0781 129.488 10.8008 129.488 11.6602C129.488 12.4023 129.613 13.0625 129.863 13.6406ZM144.922 5.22656V18H141.535V5.22656H144.922ZM144.922 0.621094V3.70312H141.535V0.621094H144.922ZM156.969 5.8125C157.969 6.45312 158.543 7.55469 158.691 9.11719H155.352C155.305 8.6875 155.184 8.34766 154.988 8.09766C154.621 7.64453 153.996 7.41797 153.113 7.41797C152.387 7.41797 151.867 7.53125 151.555 7.75781C151.25 7.98438 151.098 8.25 151.098 8.55469C151.098 8.9375 151.262 9.21484 151.59 9.38672C151.918 9.56641 153.078 9.875 155.07 10.3125C156.398 10.625 157.395 11.0977 158.059 11.7305C158.715 12.3711 159.043 13.1719 159.043 14.1328C159.043 15.3984 158.57 16.4336 157.625 17.2383C156.688 18.0352 155.234 18.4336 153.266 18.4336C151.258 18.4336 149.773 18.0117 148.812 17.168C147.859 16.3164 147.383 15.2344 147.383 13.9219H150.77C150.84 14.5156 150.992 14.9375 151.227 15.1875C151.641 15.6328 152.406 15.8555 153.523 15.8555C154.18 15.8555 154.699 15.7578 155.082 15.5625C155.473 15.3672 155.668 15.0742 155.668 14.6836C155.668 14.3086 155.512 14.0234 155.199 13.8281C154.887 13.6328 153.727 13.2969 151.719 12.8203C150.273 12.4609 149.254 12.0117 148.66 11.4727C148.066 10.9414 147.77 10.1758 147.77 9.17578C147.77 7.99609 148.23 6.98438 149.152 6.14062C150.082 5.28906 151.387 4.86328 153.066 4.86328C154.66 4.86328 155.961 5.17969 156.969 5.8125ZM167.375 15.6211V18.1172L165.793 18.1758C164.215 18.2305 163.137 17.957 162.559 17.3555C162.184 16.9727 161.996 16.3828 161.996 15.5859V7.72266H160.215V5.34375H161.996V1.78125H165.301V5.34375H167.375V7.72266H165.301V14.4727C165.301 14.9961 165.367 15.3242 165.5 15.457C165.633 15.582 166.039 15.6445 166.719 15.6445C166.82 15.6445 166.926 15.6445 167.035 15.6445C167.152 15.6367 167.266 15.6289 167.375 15.6211ZM172.953 5.22656V18H169.566V5.22656H172.953ZM172.953 0.621094V3.70312H169.566V0.621094H172.953ZM187.25 9.80859H183.828C183.766 9.33203 183.605 8.90234 183.348 8.51953C182.973 8.00391 182.391 7.74609 181.602 7.74609C180.477 7.74609 179.707 8.30469 179.293 9.42188C179.074 10.0156 178.965 10.8047 178.965 11.7891C178.965 12.7266 179.074 13.4805 179.293 14.0508C179.691 15.1133 180.441 15.6445 181.543 15.6445C182.324 15.6445 182.879 15.4336 183.207 15.0117C183.535 14.5898 183.734 14.043 183.805 13.3711H187.215C187.137 14.3867 186.77 15.3477 186.113 16.2539C185.066 17.7148 183.516 18.4453 181.461 18.4453C179.406 18.4453 177.895 17.8359 176.926 16.6172C175.957 15.3984 175.473 13.8164 175.473 11.8711C175.473 9.67578 176.008 7.96875 177.078 6.75C178.148 5.53125 179.625 4.92188 181.508 4.92188C183.109 4.92188 184.418 5.28125 185.434 6C186.457 6.71875 187.062 7.98828 187.25 9.80859Z" fill="#FFC42D"/>
</svg>
