<svg width="32" height="32" viewBox="0 0 32 32" fill="none" xmlns="http://www.w3.org/2000/svg">
<path fill-rule="evenodd" clip-rule="evenodd" d="M27.1987 12.1947L28.1591 13.1547C28.9194 13.9013 29.3329 14.9147 29.3329 15.9813C29.3462 17.048 28.9327 18.0627 28.1858 18.8213C28.1769 18.8311 28.168 18.8397 28.1591 18.8483C28.1547 18.8526 28.1502 18.8569 28.1458 18.8613L27.1987 19.808C26.8253 20.1813 26.6119 20.688 26.6119 21.2227V22.5947C26.6119 24.808 24.8112 26.6093 22.5971 26.6093H21.2232C20.6897 26.6093 20.1829 26.8213 19.8094 27.1947L18.8491 28.1547C18.0621 28.9427 17.0351 29.328 16.008 29.328C14.981 29.328 13.9539 28.9427 13.167 28.1693L12.1933 27.1947C11.8198 26.8213 11.313 26.6093 10.7795 26.6093H9.40563C7.1915 26.6093 5.39085 24.808 5.39085 22.5947V21.2227C5.39085 20.688 5.17744 20.1813 4.80397 19.7947L3.84362 18.848C2.28305 17.2893 2.26971 14.7413 3.83028 13.1693L4.80397 12.1947C5.17744 11.8213 5.39085 11.3147 5.39085 10.768V9.40799C5.39085 7.19465 7.1915 5.39598 9.40563 5.39598H10.7795C11.313 5.39598 11.8198 5.18132 12.1933 4.80798L13.1537 3.84798C14.7142 2.27598 17.2618 2.27598 18.8357 3.83598L19.8094 4.80798C20.1829 5.18132 20.6897 5.39598 21.2232 5.39598H22.5971C24.8112 5.39598 26.6119 7.19465 26.6119 9.40799V10.7827C26.6119 11.3147 26.8253 11.8213 27.1987 12.1947ZM12.5668 20.5947C12.8869 20.5947 13.1803 20.4747 13.3937 20.248L20.2496 13.396C20.7031 12.9427 20.7031 12.1947 20.2496 11.7413C19.7961 11.2893 19.0625 11.2893 18.609 11.7413L11.7532 18.5947C11.2997 19.048 11.2997 19.7947 11.7532 20.248C11.9666 20.4747 12.26 20.5947 12.5668 20.5947ZM18.2622 19.4213C18.2622 20.0747 18.7824 20.5947 19.4359 20.5947C20.0762 20.5947 20.5964 20.0747 20.5964 19.4213C20.5964 18.7827 20.0762 18.2613 19.4359 18.2613C18.7824 18.2613 18.2622 18.7827 18.2622 19.4213ZM12.5801 11.408C13.2204 11.408 13.7405 11.928 13.7405 12.568C13.7405 13.2227 13.2204 13.7413 12.5801 13.7413C11.9399 13.7413 11.4064 13.2227 11.4064 12.568C11.4064 11.928 11.9399 11.408 12.5801 11.408Z" fill="#FFC42D"/>
</svg>
