<svg width="32" height="32" viewBox="0 0 32 32" fill="none" xmlns="http://www.w3.org/2000/svg">
<path fill-rule="evenodd" clip-rule="evenodd" d="M21.1332 3.33432C21.9745 3.33432 22.8145 3.45299 23.6132 3.72099C28.5345 5.32099 30.3079 10.721 28.8265 15.441C27.9865 17.853 26.6132 20.0543 24.8145 21.853C22.2399 24.3463 19.4145 26.5597 16.3732 28.4663L16.0399 28.6677L15.6932 28.453C12.6412 26.5597 9.79986 24.3463 7.20119 21.8397C5.41453 20.041 4.03986 17.853 3.18653 15.441C1.67986 10.721 3.45319 5.32099 8.42786 3.69299C8.81453 3.55965 9.21319 3.46632 9.61319 3.41432H9.77319C10.1479 3.35965 10.5199 3.33432 10.8932 3.33432H11.0399C11.8799 3.35965 12.6932 3.50632 13.4812 3.77432H13.5599C13.6132 3.79965 13.6532 3.82765 13.6799 3.85299C13.9745 3.94765 14.2532 4.05432 14.5199 4.20099L15.0265 4.42765C15.149 4.49295 15.2864 4.59272 15.4051 4.67895C15.4804 4.73358 15.5481 4.78277 15.5999 4.81432C15.6216 4.82716 15.6437 4.84007 15.666 4.85308C15.7804 4.91982 15.8994 4.98933 15.9999 5.06632C17.4812 3.93432 19.2799 3.32099 21.1332 3.33432ZM24.6799 12.9343C25.2265 12.9197 25.6932 12.481 25.7332 11.9197V11.761C25.7732 9.89299 24.6412 8.20099 22.9199 7.54765C22.3732 7.35965 21.7732 7.65432 21.5732 8.21432C21.3865 8.77432 21.6799 9.38765 22.2399 9.58632C23.0945 9.90632 23.6665 10.7477 23.6665 11.6797V11.721C23.6412 12.0263 23.7332 12.321 23.9199 12.5477C24.1065 12.7743 24.3865 12.9063 24.6799 12.9343Z" fill="#FFC42D"/>
</svg>
