<svg width="32" height="32" viewBox="0 0 32 32" fill="none" xmlns="http://www.w3.org/2000/svg">
<path fill-rule="evenodd" clip-rule="evenodd" d="M23.3635 9.86136V11.9058C25.6599 12.6226 27.3332 14.7015 27.3332 17.1846V23.7671C27.3332 26.8411 24.7847 29.3334 21.6428 29.3334H10.3582C7.21498 29.3334 4.6665 26.8411 4.6665 23.7671V17.1846C4.6665 14.7015 6.3411 12.6226 8.63622 11.9058V9.86136C8.64977 5.8864 11.9421 2.66669 15.9795 2.66669C20.0712 2.66669 23.3635 5.8864 23.3635 9.86136ZM16.0066 4.98541C18.757 4.98541 20.9925 7.17164 20.9925 9.86136V11.6183H11.0072V9.83486C11.0208 7.15839 13.2563 4.98541 16.0066 4.98541ZM17.1853 21.9399C17.1853 22.5892 16.6569 23.1059 15.9931 23.1059C15.3427 23.1059 14.8143 22.5892 14.8143 21.9399V18.9985C14.8143 18.3625 15.3427 17.8457 15.9931 17.8457C16.6569 17.8457 17.1853 18.3625 17.1853 18.9985V21.9399Z" fill="#FFC42D"/>
</svg>
