<svg width="32" height="32" viewBox="0 0 32 32" fill="none" xmlns="http://www.w3.org/2000/svg">
<path fill-rule="evenodd" clip-rule="evenodd" d="M11.9008 21.8533H19.0823C19.6236 21.8533 20.0724 21.4 20.0724 20.8533C20.0724 20.3066 19.6236 19.8666 19.0823 19.8666H11.9008C11.3596 19.8666 10.9107 20.3066 10.9107 20.8533C10.9107 21.4 11.3596 21.8533 11.9008 21.8533ZM16.3629 13.2H11.9008C11.3596 13.2 10.9107 13.6533 10.9107 14.2C10.9107 14.7466 11.3596 15.1866 11.9008 15.1866H16.3629C16.9041 15.1866 17.353 14.7466 17.353 14.2C17.353 13.6533 16.9041 13.2 16.3629 13.2ZM25.7839 12.0341C26.0942 12.0305 26.4321 12.0266 26.7391 12.0266C27.0691 12.0266 27.3332 12.2933 27.3332 12.6266V23.3466C27.3332 26.6533 24.6797 29.3333 21.4058 29.3333H10.8975C7.46518 29.3333 4.6665 26.52 4.6665 23.0533V8.67996C4.6665 5.37329 7.33317 2.66663 10.6203 2.66663H17.6698C18.013 2.66663 18.2771 2.94663 18.2771 3.27996V7.57329C18.2771 10.0133 20.2705 12.0133 22.6863 12.0266C23.2506 12.0266 23.7481 12.0308 24.1834 12.0345C24.5221 12.0374 24.8232 12.04 25.0889 12.04C25.2769 12.04 25.5205 12.0371 25.7839 12.0341ZM26.148 10.088C25.0628 10.092 23.7836 10.088 22.8635 10.0786C21.4034 10.0786 20.2008 8.86396 20.2008 7.38929V3.87463C20.2008 3.29996 20.8912 3.01463 21.2859 3.42929C22.0003 4.17957 22.9821 5.21088 23.9594 6.23748C24.9342 7.26152 25.9046 8.28088 26.6008 9.01196C26.9862 9.41596 26.7037 10.0866 26.148 10.088Z" fill="#FFC42D"/>
</svg>
