<svg width="32" height="32" viewBox="0 0 32 32" fill="none" xmlns="http://www.w3.org/2000/svg">
<path fill-rule="evenodd" clip-rule="evenodd" d="M15.6373 29.2182C15.785 29.2953 15.9501 29.3345 16.1152 29.3332C16.2803 29.3319 16.444 29.2914 16.593 29.2129L21.3502 26.6699C22.6992 25.9508 23.7556 25.1467 24.5798 24.2106C26.3718 22.1709 27.3504 19.5677 27.3329 16.8835L27.2765 8.02927C27.2712 7.00944 26.6013 6.09944 25.6107 5.76865L16.7608 2.79938C16.2279 2.61895 15.644 2.62287 15.1205 2.80853L6.30416 5.88371C5.3189 6.22757 4.66117 7.14411 4.66654 8.16525L4.72291 17.0129C4.74036 19.7011 5.75247 22.2925 7.574 24.3112C8.40623 25.2343 9.47203 26.0266 10.8358 26.734L15.6373 29.2182ZM14.3779 18.8119C14.5766 19.0028 14.8343 19.0969 15.0921 19.0943C15.3498 19.093 15.6062 18.9962 15.8021 18.8027L21.0009 13.6774C21.3916 13.2917 21.3875 12.672 20.9929 12.2915C20.5969 11.911 19.9593 11.9136 19.5687 12.2993L15.0773 16.7264L13.2383 14.9587C12.8423 14.5783 12.2061 14.5822 11.8141 14.9679C11.4235 15.3536 11.4275 15.9733 11.8235 16.3538L14.3779 18.8119Z" fill="#FFC42D"/>
</svg>
